{"title":"Hunter X Hunter - 136 [Hi10 720p] [ENG SUBBED] [GWC].mp4","uid":10473347,"size":84286687,"categoryP":"video","categoryS":"tv_shows","magnet":"?xt=urn:btih:830f4395c3c28eeb07338ed25a65ea4eee049637&amp;dn=Hunter+X+Hunter+-+136+%5BHi10+720p%5D+%5BENG+SUBBED%5D+%5BGWC%5D.mp4&amp;tr=udp%3A%2F%2Ftracker.openbittorrent.com%3A80&amp;tr=udp%3A%2F%2Fopen.demonii.com%3A1337&amp;tr=udp%3A%2F%2Ftracker.coppersurfer.tk%3A6969&amp;tr=udp%3A%2F%2Fexodus.desync.com%3A6969","seeders":1,"leechers":0,"uploader":"canc232","files":1,"time":1404283667,"description":"Hunter X Hunter - 136 [Hi10 720p] [ENG SUBBED] [GWC] \n\n\nSTORYLINE :\nGon is a youth who lives on Kujira Isle. His dream is to become a Hunter like his father, to search out lost treasures, artefacts, and mythical creatures.\nDetermined to become a professional Hunter willing to stake his life in challenging the unknown, he sets off on a journey and meets fellow Hunter wannabes Killua, Kurapika, and Leorio.\n\n\n\nTHUMBNAIL IMAGE : &lt;a href=&quot;\nhttp://i.imgur.com/hP65lVy.jpg&quot; rel=&quot;nofollow&quot; target=&quot;_NEW&quot;&gt;\nhttp://i.imgur.com/hP65lVy.jpg&lt;/a&gt;\n\n\n\nMEDIA INFO :\nGeneral \nFormat : MPEG-4 \nFormat profile : Base Media \nFile size : 80.4 MiB \nDuration : 21mn 0s \nOverall bit rate mode : Variable \nOverall bit rate : 535 Kbps \n\nVideo \nFormat : AVC \nFormat profile : High &lt;a class=&quot;__cf_email__&quot; href=&quot;/cdn-cgi/l/email-protection&quot; data-cfemail=&quot;132223535f273d22&quot;&gt;[email&amp;#160;protected]&lt;/a&gt;&lt;script cf-hash='f9e31' type=&quot;text/javascript&quot;&gt;\n/* &lt;![CDATA[ */!function(){try{var t=&quot;currentScript&quot;in document?document.currentScript:function(){for(var t=document.getElementsByTagName(&quot;script&quot;),e=t.length;e--;)if(t[e].getAttribute(&quot;cf-hash&quot;))return t[e]}();if(t&amp;&amp;t.previousSibling){var e,r,n,i,c=t.previousSibling,a=c.getAttribute(&quot;data-cfemail&quot;);if(a){for(e=&quot;&quot;,r=parseInt(a.substr(0,2),16),n=2;a.length-n;n+=2)i=parseInt(a.substr(n,2),16)^r,e+=String.fromCharCode(i);e=document.createTextNode(e),c.parentNode.replaceChild(e,c)}}}catch(u){}}();/* ]]&gt; */&lt;/script&gt; \nFormat settings, CABAC : Yes \nFormat settings, ReFrames : 10 frames \nDuration : 21mn 0s \nBit rate : 459 Kbps \nMaximum bit rate : 9 389 Kbps \nWidth : 1 280 pixels \nHeight : 720 pixels \nDisplay aspect ratio : 16:9 \nFrame rate mode : Variable \nFrame rate : 23.976 fps \nStream size : 68.9 MiB (86%) \nTitle : Hunter X Hunter - 136 [Hi10 720p] [ENG SUBBED] [GWC] \nLanguage : English \n\nAudio \nFormat : AAC \nFormat profile : HE-AAC / LC \nDuration : 21mn 0s \nBit rate mode : Variable \nChannel(s) : 2 channels \nSampling rate : 48.0 KHz / 24.0 KHz \nStream size : 10.8 MiB (13%) \nLanguage : English \n\nText \nFormat : Timed Text \nTitle : [GWC] \nLanguage : English ","torrent":{"xt":"urn:btih:830f4395c3c28eeb07338ed25a65ea4eee049637","amp;dn":"Hunter+X+Hunter+-+136+%5BHi10+720p%5D+%5BENG+SUBBED%5D+%5BGWC%5D.mp4","amp;tr":["udp%3A%2F%2Ftracker.openbittorrent.com%3A80","udp%3A%2F%2Fopen.demonii.com%3A1337","udp%3A%2F%2Ftracker.coppersurfer.tk%3A6969","udp%3A%2F%2Fexodus.desync.com%3A6969"],"infoHash":"830f4395c3c28eeb07338ed25a65ea4eee049637","infoHashBuffer":{"type":"Buffer","data":[131,15,67,149,195,194,142,235,7,51,142,210,90,101,234,78,238,4,150,55]},"announce":[],"urlList":[]}}